# Blender3D v248 OBJ File: 
# www.blender3d.org
mtllib cylinder2.mtl
v 0.667734 -1.000000 -0.733354
v 0.792097 -1.000000 -0.581818
v 0.884507 -1.000000 -0.408931
v 0.941413 -1.000000 -0.221338
v 0.960628 -1.000000 -0.026248
v 0.941413 -1.000000 0.168843
v 0.884507 -1.000000 0.356436
v 0.792097 -1.000000 0.529323
v 0.667734 -1.000000 0.680859
v 0.516198 -1.000000 0.805222
v 0.343311 -1.000000 0.897632
v 0.155718 -1.000000 0.954538
v -0.039373 -1.000000 0.973752
v -0.234463 -1.000000 0.954538
v -0.422056 -1.000000 0.897632
v -0.594943 -1.000000 0.805222
v -0.746480 -1.000000 0.680859
v -0.870842 -1.000000 0.529322
v -0.963252 -1.000000 0.356435
v -1.020158 -1.000000 0.168842
v -1.039372 -1.000000 -0.026248
v -1.020158 -1.000000 -0.221339
v -0.963252 -1.000000 -0.408932
v -0.870841 -1.000000 -0.581819
v -0.746478 -1.000000 -0.733355
v -0.594942 -1.000000 -0.857718
v -0.422055 -1.000000 -0.950128
v -0.234461 -1.000000 -1.007033
v -0.039371 -1.000000 -1.026248
v 0.155720 -1.000000 -1.007032
v 0.343313 -1.000000 -0.950126
v 0.516199 -1.000000 -0.857716
v 0.667736 1.000000 -0.733353
v 0.792098 1.000000 -0.581816
v 0.884508 1.000000 -0.408929
v 0.941413 1.000000 -0.221336
v 0.960628 1.000000 -0.026245
v 0.941412 1.000000 0.168845
v 0.884507 1.000000 0.356437
v 0.792097 1.000000 0.529324
v 0.667734 1.000000 0.680860
v 0.516198 1.000000 0.805222
v 0.343311 1.000000 0.897632
v 0.155718 1.000000 0.954538
v -0.039372 1.000000 0.973752
v -0.234461 1.000000 0.954538
v -0.422054 1.000000 0.897633
v -0.594941 1.000000 0.805223
v -0.746477 1.000000 0.680861
v -0.870840 1.000000 0.529325
v -0.963251 1.000000 0.356439
v -1.020157 1.000000 0.168846
v -1.039372 1.000000 -0.026243
v -1.020159 1.000000 -0.221333
v -0.963254 1.000000 -0.408926
v -0.870845 1.000000 -0.581813
v -0.746483 1.000000 -0.733350
v -0.594948 1.000000 -0.857714
v -0.422062 1.000000 -0.950125
v -0.234470 1.000000 -1.007031
v -0.039380 1.000000 -1.026248
v 0.155710 1.000000 -1.007034
v 0.343304 1.000000 -0.950130
v 0.516191 1.000000 -0.857722
v -0.039372 -1.000000 -0.026247
v -0.039372 1.000000 -0.026248
vn 0.634394 0.000000 -0.773010
vn 0.634391 0.000000 -0.773012
vn 0.471389 0.000000 -0.881925
vn 0.471398 -0.000001 -0.881920
vn 0.290277 0.000000 -0.956943
vn 0.290286 -0.000001 -0.956940
vn 0.098010 0.000000 -0.995185
vn 0.098019 0.000000 -0.995184
vn 0.881921 0.000000 -0.471397
vn 0.881922 0.000000 -0.471395
vn 0.773010 0.000000 -0.634393
vn 0.773012 0.000000 -0.634392
vn -0.098024 0.000000 -0.995184
vn -0.098016 0.000000 -0.995185
vn -0.290291 0.000000 -0.956938
vn -0.290283 0.000000 -0.956941
vn -0.471402 0.000000 -0.881918
vn -0.471395 0.000000 -0.881922
vn -0.634398 0.000000 -0.773007
vn -0.634392 0.000000 -0.773011
vn -0.773014 0.000000 -0.634389
vn -0.773010 0.000000 -0.634394
vn -0.881924 0.000000 -0.471392
vn -0.881921 0.000000 -0.471398
vn -0.956942 0.000000 -0.290280
vn -0.956940 0.000000 -0.290286
vn -0.995185 0.000000 -0.098013
vn -0.995185 0.000000 -0.098018
vn -0.995184 0.000000 0.098021
vn -0.995185 0.000000 0.098017
vn -0.956939 0.000000 0.290288
vn -0.956941 0.000000 0.290283
vn -0.881920 0.000000 0.471400
vn -0.881922 0.000000 0.471396
vn -0.773009 0.000000 0.634395
vn -0.773011 0.000000 0.634393
vn -0.634391 0.000000 0.773012
vn -0.634394 0.000000 0.773010
vn -0.290283 0.000000 0.956941
vn -0.290285 0.000000 0.956940
vn -0.098016 0.000000 0.995185
vn -0.098017 0.000000 0.995185
vn 0.098018 0.000000 0.995185
vn 0.098017 0.000000 0.995185
vn 0.290285 0.000000 0.956940
vn 0.290284 0.000000 0.956940
vn 0.471397 0.000000 0.881921
vn 0.634393 0.000000 0.773011
vn 0.634393 0.000000 0.773010
vn 0.773010 0.000000 0.634393
vn 0.773010 0.000000 0.634394
vn 0.881921 0.000000 0.471396
vn 0.881921 0.000000 0.471398
vn 0.956940 0.000000 0.290285
vn 0.956940 0.000000 0.290286
vn 0.995185 0.000000 0.098017
vn 0.995184 0.000000 0.098019
vn 0.995185 0.000000 -0.098017
vn 0.995185 0.000000 -0.098015
vn 0.956940 0.000000 -0.290285
vn 0.956941 0.000000 -0.290283
vn 0.000000 -1.000000 0.000000
vn 0.526048 -0.668203 -0.526048
vn 0.618610 -0.668111 -0.413373
vn 0.688711 -0.666372 -0.285653
vn 0.731193 -0.666372 -0.145787
vn 0.745598 -0.666372 -0.000336
vn 0.731346 -0.666372 0.145085
vn 0.688986 -0.666372 0.284982
vn 0.620136 -0.666372 0.413923
vn 0.528367 -0.664541 0.528367
vn 0.413923 -0.666372 0.620136
vn 0.284982 -0.666372 0.688986
vn 0.145085 -0.666372 0.731346
vn -0.000336 -0.666372 0.745598
vn -0.145787 -0.666372 0.731193
vn -0.285653 -0.666372 0.688711
vn -0.414533 -0.666372 0.619739
vn -0.527451 -0.666372 0.526963
vn -0.620136 -0.666372 0.413923
vn -0.688986 -0.666372 0.284982
vn -0.731346 -0.666372 0.145085
vn -0.745598 -0.666372 -0.000336
vn -0.729728 -0.668111 -0.145146
vn -0.688711 -0.666372 -0.285653
vn -0.619739 -0.666372 -0.414533
vn -0.526963 -0.666372 -0.527451
vn -0.413923 -0.666372 -0.620136
vn -0.284707 -0.668111 -0.687399
vn -0.145085 -0.666372 -0.731346
vn 0.000336 -0.666372 -0.745598
vn 0.145787 -0.666372 -0.731193
vn 0.285653 -0.666372 -0.688711
vn 0.414533 -0.666372 -0.619739
vn -0.284982 0.666372 0.688986
vn -0.413923 0.666372 0.620136
vn 0.000000 1.000000 0.000000
vn 0.620136 0.666372 -0.413923
vn 0.527024 0.666280 -0.527512
vn 0.688986 0.666372 -0.284982
vn 0.731346 0.666372 -0.145085
vn 0.745598 0.666372 0.000336
vn 0.731193 0.666372 0.145787
vn 0.688711 0.666372 0.285653
vn 0.619739 0.666372 0.414533
vn 0.526048 0.668203 0.526048
vn 0.414533 0.666372 0.619739
vn 0.285653 0.666372 0.688711
vn 0.145787 0.666372 0.731193
vn 0.000336 0.666372 0.745598
vn -0.145085 0.666372 0.731346
vn -0.526963 0.666372 0.527482
vn -0.619739 0.666372 0.414533
vn -0.688711 0.666372 0.285653
vn -0.731193 0.666372 0.145817
vn -0.745598 0.666372 0.000336
vn -0.731346 0.666372 -0.145085
vn -0.687399 0.668111 -0.284707
vn -0.620136 0.666372 -0.413923
vn -0.527482 0.666372 -0.526963
vn -0.414533 0.666372 -0.619739
vn -0.285653 0.666372 -0.688711
vn -0.145146 0.668111 -0.729728
vn -0.000336 0.666372 -0.745598
vn 0.145085 0.666372 -0.731346
vn 0.284982 0.666372 -0.688986
vn 0.413923 0.666372 -0.620136
g Cylinder_Cylinder.001_Material.001
usemtl Material.001
s off
f 33//1 1//1 32//1
f 33//2 32//2 64//2
f 31//3 63//3 64//3
f 31//4 64//4 32//4
f 30//5 62//5 63//5
f 30//6 63//6 31//6
f 29//7 61//7 62//7
f 29//8 62//8 30//8
f 2//9 34//9 3//9
f 34//10 35//10 3//10
f 1//11 33//11 2//11
f 33//12 34//12 2//12
g Cylinder_Cylinder.001_Material.002
usemtl Material.002
f 28//13 60//13 61//13
f 28//14 61//14 29//14
f 27//15 59//15 60//15
f 27//16 60//16 28//16
f 26//17 58//17 59//17
f 26//18 59//18 27//18
f 25//19 57//19 58//19
f 25//20 58//20 26//20
f 24//21 56//21 57//21
f 24//22 57//22 25//22
g Cylinder_Cylinder.001_Material.003
usemtl Material.003
f 23//23 55//23 56//23
f 23//24 56//24 24//24
f 22//25 54//25 55//25
f 22//26 55//26 23//26
f 21//27 53//27 54//27
f 21//28 54//28 22//28
f 20//29 52//29 53//29
f 20//30 53//30 21//30
f 19//31 51//31 52//31
f 19//32 52//32 20//32
f 18//33 50//33 51//33
f 18//34 51//34 19//34
g Cylinder_Cylinder.001_Material.004
usemtl Material.004
f 17//35 49//35 50//35
f 17//36 50//36 18//36
f 16//37 48//37 49//37
f 16//38 49//38 17//38
f 14//39 46//39 47//39
f 14//40 47//40 15//40
f 13//41 45//41 46//41
f 13//42 46//42 14//42
g Cylinder_Cylinder.001_Material.005
usemtl Material.005
f 12//43 44//43 45//43
f 12//44 45//44 13//44
f 11//45 43//45 44//45
f 11//46 44//46 12//46
f 10//47 42//47 43//47
f 10//47 43//47 11//47
f 9//48 41//48 42//48
f 9//49 42//49 10//49
f 8//50 40//50 9//50
f 40//51 41//51 9//51
g Cylinder_Cylinder.001_Material.006
usemtl Material.006
f 7//52 39//52 8//52
f 39//53 40//53 8//53
f 6//54 38//54 7//54
f 38//55 39//55 7//55
f 5//56 37//56 6//56
f 37//57 38//57 6//57
f 4//58 36//58 5//58
f 36//59 37//59 5//59
f 3//60 35//60 4//60
f 35//61 36//61 4//61
g Cylinder_Cylinder.001_Material.007
usemtl Material.007
s 1
f 65//62 1//63 2//64
f 65//62 2//64 3//65
f 65//62 3//65 4//66
f 65//62 4//66 5//67
f 65//62 5//67 6//68
f 65//62 6//68 7//69
f 65//62 7//69 8//70
f 65//62 8//70 9//71
f 65//62 9//71 10//72
f 65//62 10//72 11//73
f 65//62 11//73 12//74
f 65//62 12//74 13//75
f 65//62 13//75 14//76
f 65//62 14//76 15//77
f 65//62 15//77 16//78
f 65//62 16//78 17//79
f 65//62 17//79 18//80
f 65//62 18//80 19//81
f 65//62 19//81 20//82
f 65//62 20//82 21//83
f 65//62 21//83 22//84
f 65//62 22//84 23//85
f 65//62 23//85 24//86
f 65//62 24//86 25//87
f 65//62 25//87 26//88
f 65//62 26//88 27//89
f 65//62 27//89 28//90
f 65//62 28//90 29//91
f 65//62 29//91 30//92
f 65//62 30//92 31//93
f 65//62 31//93 32//94
f 32//94 1//63 65//62
f 15//77 47//95 48//96
f 15//77 48//96 16//78
g Cylinder_Cylinder.001_Material.001
usemtl Material.001
f 66//97 34//98 33//99
f 66//97 35//100 34//98
f 66//97 36//101 35//100
f 66//97 37//102 36//101
f 66//97 38//103 37//102
f 66//97 39//104 38//103
f 66//97 40//105 39//104
f 66//97 41//106 40//105
f 66//97 42//107 41//106
f 66//97 43//108 42//107
f 66//97 44//109 43//108
f 66//97 45//110 44//109
f 66//97 46//111 45//110
f 66//97 47//95 46//111
f 66//97 48//96 47//95
f 66//97 49//112 48//96
f 66//97 50//113 49//112
f 66//97 51//114 50//113
f 66//97 52//115 51//114
f 66//97 53//116 52//115
f 66//97 54//117 53//116
f 66//97 55//118 54//117
f 66//97 56//119 55//118
f 66//97 57//120 56//119
f 66//97 58//121 57//120
f 66//97 59//122 58//121
f 66//97 60//123 59//122
f 66//97 61//124 60//123
f 66//97 62//125 61//124
f 66//97 63//126 62//125
f 66//97 64//127 63//126
f 66//97 33//99 64//127
