# Blender3D v248 OBJ File: 
# www.blender3d.org
mtllib uvcube2.mtl
v 1.169504 -1.209790 -1.182525
v 1.169504 -1.209790 0.817475
v -0.830496 -1.209790 0.817475
v -0.830496 -1.209790 -1.182526
v 1.169504 0.790210 -1.182525
v 1.169503 0.790210 0.817475
v -0.830496 0.790210 0.817474
v -0.830496 0.790210 -1.182525
vt 0.142857 0.214286
vt 0.214286 0.000000
vt 0.357143 0.285715
vt 0.428572 0.071429
vt 0.500000 0.571429
vt 0.285715 0.500000
vt 0.571429 0.357143
vt 0.000000 0.642857
vt 0.071429 0.428572
vt 0.214286 0.714286
vt 0.785715 0.428572
vt 1.000000 0.500001
vt 0.714286 0.642858
vt 0.928571 0.714286
vn 0.000000 0.000000 -1.000000
vn -1.000000 0.000000 0.000000
vn 0.000000 0.000000 1.000000
vn -0.000001 0.000001 1.000000
vn 1.000000 0.000000 0.000000
vn 1.000000 0.000001 0.000001
vn 0.000000 1.000000 0.000000
vn 0.000000 -1.000000 0.000000
usemtl Material_cube_templat_cube_template_Cube.tg
s off
f 5/1/1 1/2/1 8/3/1
f 1/2/1 4/4/1 8/3/1
f 3/5/2 7/6/2 8/3/2
f 3/5/2 8/3/2 4/7/2
f 2/8/3 6/9/3 3/10/3
f 6/9/4 7/6/4 3/10/4
f 1/11/5 5/12/5 2/13/5
f 5/12/6 6/14/6 2/13/6
f 5/1/7 8/3/7 7/6/7
f 5/1/7 7/6/7 6/9/7
f 1/11/8 2/13/8 3/5/8
f 1/11/8 3/5/8 4/7/8
